<?xml version="1.0" standalone="no"?><!DOCTYPE svg PUBLIC "-//W3C//DTD SVG 1.1//EN" "http://www.w3.org/Graphics/SVG/1.1/DTD/svg11.dtd"><svg t="1710310343636" class="icon" viewBox="0 0 1024 1024" version="1.1" xmlns="http://www.w3.org/2000/svg" p-id="8032" xmlns:xlink="http://www.w3.org/1999/xlink"><path d="M548.571429 94.256762l243.565714 140.629333a73.142857 73.142857 0 0 1 36.571428 63.341715v281.258666a73.142857 73.142857 0 0 1-35.718095 62.854095l88.064 152.502858-160.475428 37.497904-104.740572 117.028572-90.819047-157.281524c-11.215238 2.023619-22.77181 1.414095-33.743239-1.828571l-91.843047 159.110095-104.764953-117.028572L134.192762 794.819048l90.502095-156.720762a73.142857 73.142857 0 0 1-29.403428-58.636191V298.22781a73.142857 73.142857 0 0 1 36.571428-63.341715l243.565714-140.629333a73.142857 73.142857 0 0 1 73.142858 0zM287.768381 675.08419l-40.96 70.948572 86.966857 20.309333 52.784762 59.001905 40.350476-69.924571-139.142095-80.335239z m441.856 3.803429L590.506667 759.222857l38.204952 66.121143 52.784762-59.001905 86.942476-20.284952-38.765714-67.169524zM512 157.622857l-243.565714 140.604953v281.258666L512 720.11581l243.565714-140.629334V298.22781L512 157.598476zM512 292.571429a146.285714 146.285714 0 1 1 0 292.571428 146.285714 146.285714 0 0 1 0-292.571428z m0 73.142857a73.142857 73.142857 0 1 0 0 146.285714 73.142857 73.142857 0 0 0 0-146.285714z" p-id="8033"></path></svg>