<?xml version="1.0" standalone="no"?><!DOCTYPE svg PUBLIC "-//W3C//DTD SVG 1.1//EN" "http://www.w3.org/Graphics/SVG/1.1/DTD/svg11.dtd"><svg t="1710404583485" class="icon" viewBox="0 0 1024 1024" version="1.1" xmlns="http://www.w3.org/2000/svg" p-id="8032" xmlns:xlink="http://www.w3.org/1999/xlink"><path d="M731.428571 97.52381a73.142857 73.142857 0 0 1 73.142858 73.142857v682.666666a73.142857 73.142857 0 0 1-73.142858 73.142857H292.571429a73.142857 73.142857 0 0 1-73.142858-73.142857V170.666667a73.142857 73.142857 0 0 1 73.142858-73.142857h438.857142z m0 73.142857H292.571429v682.666666h438.857142V170.666667z m-219.428571 536.380952a48.761905 48.761905 0 1 1 0 97.52381 48.761905 48.761905 0 0 1 0-97.52381z m97.52381-499.809524v73.142857h-195.04762v-73.142857h195.04762z" p-id="8033"></path></svg>