<?xml version="1.0" standalone="no"?><!DOCTYPE svg PUBLIC "-//W3C//DTD SVG 1.1//EN" "http://www.w3.org/Graphics/SVG/1.1/DTD/svg11.dtd"><svg t="1711354314155" class="icon" viewBox="0 0 1024 1024" version="1.1" xmlns="http://www.w3.org/2000/svg" p-id="8490" xmlns:xlink="http://www.w3.org/1999/xlink"><path d="M862.841905 485.254095l51.443809 51.785143-367.640381 364.909714-16.749714-16.822857 16.822857 16.969143H495.420952v-51.760762L862.841905 485.254095zM292.327619 121.904762v778.483809H231.497143A72.996571 72.996571 0 0 1 158.47619 827.392V194.876952A72.996571 72.996571 0 0 1 231.497143 121.904762h60.830476z m474.550857 0a72.996571 72.996571 0 0 1 73.020953 72.97219l-0.024381 218.965334-474.550858 474.38019V121.904762h401.554286z m-146.017524 291.937524H426.179048v72.97219h194.681904v-72.97219z m73.020953-145.968762H426.179048v72.97219h267.702857v-72.97219z" p-id="8491"></path></svg>